<?xml version="1.0" encoding="UTF-8" standalone="no"?>
<!-- Created with Inkscape (http://www.inkscape.org/) -->

<svg
   width="158.75mm"
   height="79.375832mm"
   viewBox="0 0 158.75 79.375832"
   version="1.1"
   id="svg5"
   inkscape:version="1.1.1 (1:1.1+202109281949+c3084ef5ed)"
   sodipodi:docname="backgorund.svg"
   xmlns:inkscape="http://www.inkscape.org/namespaces/inkscape"
   xmlns:sodipodi="http://sodipodi.sourceforge.net/DTD/sodipodi-0.dtd"
   xmlns="http://www.w3.org/2000/svg"
   xmlns:svg="http://www.w3.org/2000/svg">
  <sodipodi:namedview
     id="namedview7"
     pagecolor="#505050"
     bordercolor="#eeeeee"
     borderopacity="1"
     inkscape:pageshadow="0"
     inkscape:pageopacity="0"
     inkscape:pagecheckerboard="0"
     inkscape:document-units="mm"
     showgrid="false"
     inkscape:zoom="0.47393378"
     inkscape:cx="186.73495"
     inkscape:cy="374.52489"
     inkscape:window-width="1366"
     inkscape:window-height="704"
     inkscape:window-x="0"
     inkscape:window-y="27"
     inkscape:window-maximized="1"
     inkscape:current-layer="layer1" />
  <defs
     id="defs2" />
  <g
     inkscape:label="Calque 1"
     inkscape:groupmode="layer"
     id="layer1"
     transform="translate(-33.395676,-140.07565)">
    <path
       style="fill:#000000;stroke-width:0.264583"
       d="m 33.395676,207.74835 v -11.70229 l 2.315104,2.27915 c 8.599482,8.46595 18.135996,15.68187 25.729028,19.46821 l 3.308993,1.65006 -15.676562,0.004 -15.676563,0.004 z m 31.713728,9.35082 c -9.881123,-5.62759 -17.474865,-11.5278 -27.414249,-21.30043 l -4.299479,-4.22734 v -25.74787 -25.74788 h 11.239751 11.239751 l 0.134042,0.59531 c 0.07372,0.32742 0.435385,1.96453 0.803692,3.63802 2.215409,10.06624 9.766917,27.36511 16.423746,37.62327 12.719751,19.60109 29.476572,31.18274 48.522912,33.53709 5.17093,0.63919 14.04426,0.0391 19.32152,-1.30675 8.35402,-2.13047 17.06261,-7.72402 23.27958,-14.95257 1.0667,-1.24026 1.12638,-1.27332 0.95511,-0.52916 -0.32849,1.42734 -2.01159,4.71269 -3.72756,7.27604 -2.75624,4.11736 -6.81134,8.27864 -11.48694,11.78773 l -2.27314,1.70602 H 108.53318 69.238217 Z m 87.751506,1.502 c 3.51827,-2.83971 8.60828,-8.59359 11.30241,-12.77656 4.72104,-7.33 7.1188,-16.64497 6.7529,-26.23402 -0.0741,-1.94238 -0.0837,-3.53161 -0.0214,-3.53161 0.24754,0 1.41435,2.90499 2.04416,5.08933 1.1768,4.0814 1.56019,7.68032 1.40268,13.16692 -0.23449,8.1681 -1.83967,14.94125 -5.28283,22.29115 l -1.33244,2.84427 h -7.959 -7.959 z m 17.41188,0.51875 c 0.0793,-0.1819 0.61315,-1.40229 1.18637,-2.71198 3.16636,-7.2345 5.16854,-17.46676 4.68537,-23.94479 -0.26843,-3.59885 -0.92552,-8.41757 -1.461,-10.7141 -1.88636,-8.09011 -6.7058,-16.03925 -13.72614,-22.63982 -2.75888,-2.59391 -2.78913,-2.6351 -1.64167,-2.23516 5.9814,2.08475 13.25936,7.86524 18.32519,14.5547 3.58018,4.72765 7.12941,11.52943 9.06606,17.37426 1.35838,4.09965 2.62681,10.08675 3.04136,14.35555 0.31474,3.241 0.36931,10.19963 0.10877,13.87017 l -0.17191,2.4219 h -9.77827 c -7.72311,0 -9.74798,-0.0695 -9.63413,-0.33073 z m 21.65008,-0.19844 c 0,-0.3638 0.0601,-0.51263 0.13345,-0.33073 0.0734,0.18191 0.0734,0.47956 0,0.66146 -0.0734,0.1819 -0.13345,0.0331 -0.13345,-0.33073 z m -65.92303,-5.81593 c -12.68006,-0.92816 -25.91753,-6.71078 -36.164068,-15.79782 -10.800524,-9.57834 -19.939489,-23.3982 -25.357817,-38.34585 -1.496769,-4.12917 -3.030387,-9.66934 -3.946321,-14.25602 -0.377778,-1.89177 -0.746587,-3.70748 -0.819578,-4.0349 l -0.132712,-0.59531 H 75.62764 91.675936 l -0.153344,1.12448 c -0.535877,3.92962 -0.76843,8.77202 -0.62579,13.03073 0.349663,10.43985 2.19679,18.16635 6.388484,26.72291 3.847424,7.85381 8.537284,13.6422 15.353094,18.94937 3.61867,2.81768 5.71869,4.14624 8.89525,5.62748 6.41001,2.98902 12.86038,4.25667 20.8032,4.08835 4.76327,-0.10094 5.00669,0.0521 1.90941,1.20011 -5.22044,1.93503 -11.79401,2.75877 -18.2464,2.28647 z m 10.45737,-7.82529 c -0.47243,-0.35712 -0.51593,-0.66884 -0.45105,-3.23273 0.0395,-1.56063 0.18205,-3.79001 0.31681,-4.95417 0.36339,-3.13942 0.86307,-14.6466 0.67651,-15.57944 -0.0894,-0.44689 0.0869,-2.0351 0.39452,-3.5549 0.66178,-3.26933 0.56359,-4.0167 -0.52776,-4.0167 -0.53564,0 -0.97839,-0.25338 -1.47586,-0.84458 -0.59497,-0.70709 -0.68435,-1.00913 -0.54903,-1.85537 0.0889,-0.55594 0.22714,-1.93205 0.3072,-3.05803 0.24556,-3.45345 0.3994,-3.74392 1.43463,-2.70869 0.6294,0.62941 1.13874,0.67301 1.5847,0.13566 0.44663,-0.53816 0.15451,-1.18413 -0.46252,-1.02277 -0.27373,0.0716 -0.62145,-0.027 -0.77271,-0.21897 -0.40974,-0.52016 -0.63652,-2.02654 -0.38279,-2.54268 0.12229,-0.24876 0.41794,-0.82784 0.65699,-1.28685 0.23906,-0.45902 0.44653,-1.35199 0.46103,-1.98438 0.0504,-2.19556 0.4481,-2.61775 0.47642,-0.5057 0.0345,2.57261 0.70906,5.04444 1.37663,5.04444 0.52261,0 2.13541,3.09154 3.00319,5.75674 0.24912,0.76511 0.56213,1.32363 0.69558,1.24116 0.31632,-0.1955 0.31497,-4.39196 -0.002,-5.2248 -0.28165,-0.74078 -1.04141,-1.12238 -1.44035,-0.72344 -0.41731,0.41731 -0.64337,0.33088 -0.84234,-0.32206 -0.0998,-0.32742 -0.35651,-0.79496 -0.5705,-1.03898 -0.56204,-0.64091 -0.94529,-2.26496 -0.8943,-3.78966 0.0577,-1.72496 0.82306,-2.56766 2.36885,-2.6082 0.5922,-0.0155 1.21926,0.11429 1.39345,0.28849 0.58858,0.58858 0.59013,2.99978 0.003,4.3585 -0.74707,1.72829 -0.32747,2.56962 1.68997,3.38843 1.0214,0.41456 1.48366,0.75715 1.55595,1.15315 0.16615,0.91019 0.7443,4.96833 0.87556,6.1458 0.11283,1.01212 0.0586,1.12128 -0.81324,1.63566 -1.07131,0.63209 -1.37651,1.62043 -1.13809,3.68548 0.73259,6.34501 0.9445,14.07838 0.48364,17.64995 -0.37322,2.89234 -0.0676,6.95199 0.60014,7.972 0.19521,0.2982 0.84411,0.76277 1.44198,1.03237 1.21897,0.54968 1.34991,0.8199 0.52428,1.08195 -0.79478,0.25225 -4.87065,-0.12478 -5.35912,-0.49574 -0.22603,-0.17165 -0.52783,-1.07211 -0.67987,-2.02847 -0.36098,-2.2706 -0.35351,-8.4593 0.012,-9.91071 0.22811,-0.90593 0.20011,-1.58086 -0.13229,-3.18818 -0.23201,-1.12143 -0.42176,-2.40722 -0.42176,-2.85732 0,-1.44971 -0.44505,-0.40101 -0.87661,2.06559 -0.22915,1.30969 -0.65792,4.34578 -0.95281,6.74687 -0.2949,2.4011 -0.66115,5.2586 -0.81389,6.35 -0.15274,1.09141 -0.27826,2.23296 -0.27892,2.53679 -0.002,0.68675 -0.91321,1.69941 -1.51985,1.68813 -0.24899,-0.005 -0.68799,-0.18627 -0.97555,-0.40364 z m 3.51538,-33.10343 c -0.10801,-1.27808 -0.74358,-1.52171 -0.74358,-0.28503 0,0.49719 0.0794,0.98336 0.17639,1.08038 0.42024,0.42025 0.64346,0.10724 0.56719,-0.79535 z m 5.34184,-4.8574 c 0,-0.31675 -0.74629,-0.65652 -0.96395,-0.43886 -0.2317,0.2317 0.1613,0.71175 0.58269,0.71175 0.20969,0 0.38126,-0.1228 0.38126,-0.27289 z m -24.23238,35.72705 c -13.7003,-6.90015 -24.10539,-23.00035 -27.01681,-41.80416 -0.365831,-2.36277 -0.471749,-4.66865 -0.47398,-10.31875 -0.0016,-4.00183 0.0959,-8.07972 0.21662,-9.06198 l 0.219498,-1.78594 h 10.149752 10.14976 l -1.42908,2.97656 c -5.59021,11.64356 -6.99388,24.71635 -3.9748,37.01842 1.866,7.60354 6.19912,14.84551 12.75779,21.32221 1.80519,1.78263 3.11816,3.24114 2.91771,3.24114 -0.20045,0 -1.78285,-0.71437 -3.51646,-1.5875 z m 70.55847,-4.12543 c -0.39986,-3.05627 -1.84179,-8.8985 -2.96258,-12.00338 -1.98466,-5.49801 -5.88483,-12.44126 -9.36075,-16.66441 -3.00245,-3.6479 -8.26372,-8.33355 -12.70381,-11.31393 -6.9276,-4.65011 -17.17194,-7.3001 -26.52447,-6.86133 -1.92816,0.0905 -3.50573,0.11457 -3.50573,0.0536 0,-0.30526 3.36075,-1.5842 5.94506,-2.2624 3.58325,-0.94034 6.71714,-1.32514 10.80026,-1.32612 12.59839,-0.003 24.64546,4.22956 36.10275,12.6842 l 2.70953,1.99943 0.002,19.11615 c 0.001,10.51388 -0.0365,19.11614 -0.0841,19.11614 -0.0476,0 -0.23598,-1.14207 -0.4186,-2.53793 z m -79.89106,-14.74404 c -3.8695,-9.29495 -3.51921,-22.82386 0.89964,-34.74657 1.1358,-3.06455 4.04256,-9.08849 4.46345,-9.25 0.1608,-0.0617 4.18427,-0.0808 8.94104,-0.0423 l 8.64867,0.0698 -2.56527,1.90752 c -5.71221,4.24757 -11.91335,11.62775 -15.07076,17.93623 -3.17169,6.33701 -4.82561,14.72002 -4.45012,22.55573 0.0924,1.92815 0.11655,3.50573 0.0537,3.50573 -0.0629,0 -0.47702,-0.87126 -0.92033,-1.93614 z m 6.41807,-20.69007 c 0.10646,-0.43418 0.72366,-1.86098 1.37155,-3.17067 3.3459,-6.76361 10.36033,-13.95833 18.29292,-18.76306 l 2.43944,-1.47756 h 25.93712 25.93712 v 9.78958 c 0,5.38427 -0.0582,9.78959 -0.12934,9.78959 -0.0711,0 -0.81528,-0.52127 -1.65365,-1.15837 -6.22158,-4.72795 -14.52009,-8.70371 -21.85914,-10.47253 -8.01779,-1.93242 -15.98203,-2.01347 -24.63287,-0.25069 -8.10321,1.6512 -16.1401,6.35417 -22.93205,13.41924 -2.43348,2.53133 -2.93,2.94245 -2.7711,2.29447 z"
       id="path854" />
  </g>
</svg>
